<svg width="129" height="65" viewBox="0 0 129 65" fill="none" xmlns="http://www.w3.org/2000/svg">
<path d="M70 0.5C70.2 0.5 70.3 0.7 70.3 1.1C70.3 1.5 70.2 1.7 70 1.7C68 1.7 66.5 1.9 65.5 2.3C64.5 2.63333 63.7334 3.26666 63.2 4.2C62.7334 5.13333 62.3 6.6 61.9 8.6L53.7 54.9C53.5 56.1667 53.4 57.2 53.4 58C53.4 59.5333 53.8334 60.5667 54.7 61.1C55.5667 61.5667 57.1667 61.8 59.5 61.8C59.7 61.8 59.8 62 59.8 62.4C59.8 62.8 59.7 63 59.5 63C57.7667 63 56.4 62.9667 55.4 62.9L49.2 62.8L43 62.9C41.9334 62.9667 40.4334 63 38.5 63C38.3667 63 38.3 62.8 38.3 62.4C38.3 62 38.3667 61.8 38.5 61.8C40.6334 61.8 42.2 61.6333 43.2 61.3C44.2 60.9667 44.9334 60.3333 45.4 59.4C45.9334 58.4667 46.3667 56.9667 46.7 54.9L50.8 31.6H20.5L16.4 54.9C16.1334 56.6333 16 57.7333 16 58.2C16 59.6 16.4334 60.5667 17.3 61.1C18.1667 61.5667 19.7667 61.8 22.1 61.8C22.3 61.8 22.4 62 22.4 62.4C22.4 62.8 22.3 63 22.1 63C20.3 63 18.8667 62.9667 17.8 62.9L11.4 62.8L5.40002 62.9C4.40002 62.9667 3.00002 63 1.20002 63C1.00002 63 0.900024 62.8 0.900024 62.4C0.900024 62 1.00002 61.8 1.20002 61.8C3.26669 61.8 4.80002 61.6333 5.80002 61.3C6.80002 60.9667 7.56669 60.3333 8.10002 59.4C8.63336 58.4 9.06669 56.9 9.40003 54.9L17.6 8.6C17.8667 6.86666 18 5.8 18 5.4C18 3.93333 17.5667 2.96666 16.7 2.5C15.8334 1.96666 14.2334 1.7 11.9 1.7C11.7667 1.7 11.7 1.5 11.7 1.1C11.7 0.7 11.7667 0.5 11.9 0.5L16.2 0.599998C18.6 0.73333 20.5667 0.799995 22.1 0.799995C23.6334 0.799995 25.7334 0.73333 28.4 0.599998L32.8 0.5C32.9334 0.5 33 0.7 33 1.1C33 1.5 32.9334 1.7 32.8 1.7C30.8 1.7 29.2667 1.9 28.2 2.3C27.2 2.7 26.4334 3.4 25.9 4.4C25.4334 5.33333 25 6.8 24.6 8.8L21 29.3H51.2L54.8 8.8C55.0667 7.06666 55.2 5.93333 55.2 5.4C55.2 3.93333 54.7667 2.96666 53.9 2.5C53.0334 1.96666 51.4667 1.7 49.2 1.7C49 1.7 48.9 1.5 48.9 1.1C48.9 0.7 49 0.5 49.2 0.5L53.5 0.599998C56.0334 0.73333 58.0667 0.799995 59.6 0.799995C61.0667 0.799995 63.1334 0.73333 65.8 0.599998L70 0.5Z" fill="#473A19"/>
<path d="M128.4 0.5C128.533 0.5 128.6 0.7 128.6 1.1C128.6 1.5 128.533 1.7 128.4 1.7C123.4 1.7 120.367 4.96666 119.3 11.5L109.9 63.9C109.9 64.0333 109.8 64.1333 109.6 64.2C109.4 64.3333 109.167 64.4 108.9 64.4C108.367 64.4 108.067 64.2667 108 64L78.7 8.7L71.2 52.1C70.9333 53.8333 70.8 55 70.8 55.6C70.8 59.7333 72.7667 61.8 76.7 61.8C76.8333 61.8 76.9 62 76.9 62.4C76.9 62.8 76.8333 63 76.7 63C75.2333 63 74.0667 62.9667 73.2 62.9L68.3 62.8L63.5 62.9C62.6333 62.9667 61.3667 63 59.7 63C59.5667 63 59.5 62.8 59.5 62.4C59.5 62 59.5667 61.8 59.7 61.8C64.7 61.8 67.7333 58.5667 68.8 52.1L77 5.9C75.9333 4.36666 74.8667 3.3 73.8 2.7C72.7333 2.03333 71.6 1.7 70.4 1.7C70.2 1.7 70.1 1.5 70.1 1.1C70.1 0.7 70.2 0.5 70.4 0.5L74.3 0.599998C75.1 0.666664 76.2 0.699997 77.6 0.699997C78.8667 0.699997 79.9333 0.666664 80.8 0.599998C81.6667 0.533333 82.3 0.5 82.7 0.5C83.1 0.5 83.4 0.633331 83.6 0.899994C83.8 1.1 84.0333 1.6 84.3 2.4C84.7667 3.73333 85.2333 4.83333 85.7 5.7L109.8 51.4L116.9 11.5C117.167 9.76667 117.3 8.56667 117.3 7.9C117.3 3.76667 115.333 1.7 111.4 1.7C111.267 1.7 111.2 1.5 111.2 1.1C111.2 0.7 111.267 0.5 111.4 0.5L114.8 0.599998C116.8 0.73333 118.5 0.799995 119.9 0.799995C120.967 0.799995 122.5 0.73333 124.5 0.599998L128.4 0.5Z" fill="#473A19"/>
</svg>
